<svg data-name="Laag 1" xmlns="http://www.w3.org/2000/svg" viewBox="0 0 30 30"><path d="M5.74 24.23c-.76 0-1.38.62-1.38 1.38 0 .14.11.25.25.25s.25-.11.25-.25c0-.48.39-.88.88-.88s.88.39.88.88v.23c0 .35-.96 1.31-1.28 1.63l-1.35 1.35c-.07.07-.09.18-.05.27s.13.15.23.15h2.71c.14 0 .25-.11.25-.25s-.11-.25-.25-.25H4.77l.93-.93c.88-.88 1.42-1.52 1.42-1.98v-.23c0-.76-.62-1.38-1.38-1.38Zm4.29 0c-.88 0-1.6.72-1.6 1.6v1.81c0 .88.72 1.6 1.6 1.6s1.6-.72 1.6-1.6v-1.81c0-.88-.72-1.6-1.6-1.6Zm1.11 3.42c0 .61-.5 1.1-1.1 1.1s-1.1-.5-1.1-1.1v-1.81c0-.61.5-1.1 1.1-1.1s1.1.5 1.1 1.1v1.81Zm7.92-3.42c-.88 0-1.6.72-1.6 1.6v1.81c0 .88.72 1.6 1.6 1.6s1.61-.72 1.61-1.6v-1.81c0-.88-.72-1.6-1.61-1.6Zm1.11 3.42a1.105 1.105 0 0 1-2.21 0v-1.81c0-.61.5-1.1 1.1-1.1s1.11.5 1.11 1.1v1.81Zm-5.62-1.61h-1.03l.33-1.31h1.61c.14 0 .25-.11.25-.25s-.11-.25-.25-.25h-1.81c-.11 0-.21.08-.24.19l-.45 1.81c-.02.07 0 .15.05.21s.12.1.2.1h1.35c.61 0 1.1.5 1.1 1.1s-.5 1.1-1.1 1.1c-.49 0-.97-.32-1.12-.74a.248.248 0 0 0-.32-.15c-.13.05-.2.19-.15.32.22.62.88 1.07 1.59 1.07.88 0 1.6-.72 1.6-1.6s-.72-1.6-1.6-1.6Zm5.22-6.93c0-1.13-.72-2.06-1.61-2.06s-1.6.92-1.6 2.06.72 2.06 1.6 2.06 1.61-.92 1.61-2.06Zm-2.71 0c0-.86.5-1.56 1.1-1.56s1.11.7 1.11 1.56-.5 1.56-1.11 1.56-1.1-.7-1.1-1.56Zm-4.07.14.02.02v.01l1.81 1.81s.11.07.18.07.13-.02.18-.07c.1-.1.1-.26 0-.35l-1.38-1.38h.3c.64 0 1.15-.52 1.15-1.15s-.52-1.15-1.15-1.15h-1.35c-.14 0-.25.11-.25.25v3.61c0 .14.11.25.25.25s.25-.11.25-.25v-1.66Zm0-1.7h1.1c.36 0 .65.29.65.65s-.29.65-.65.65h-.9c-.06 0-.12.03-.16.07h-.02v.01s-.01 0-.02.02v-1.41Zm-5.67 3.11H5.51l2.02-3.23c.05-.08.05-.17 0-.25s-.13-.13-.22-.13H5.05c-.14 0-.25.11-.25.25s.11.25.25.25h1.81l-2.02 3.23c-.05.08-.05.17 0 .25s.13.13.22.13h2.26c.14 0 .25-.11.25-.25s-.11-.25-.25-.25Zm1.56.25c0 .14.11.25.25.25h1.81c.14 0 .25-.11.25-.25s-.11-.25-.25-.25H9.38v-1.31h1.1c.14 0 .25-.11.25-.25s-.11-.25-.25-.25h-1.1v-1.31h1.56c.14 0 .25-.11.25-.25s-.11-.25-.25-.25H9.13c-.14 0-.25.11-.25.25v3.61Zm2.06-8.78c.14 0 .25-.11.25-.25s-.11-.25-.25-.25H9.13c-.14 0-.25.11-.25.25v3.61c0 .14.11.25.25.25h1.81c.14 0 .25-.11.25-.25s-.11-.25-.25-.25H9.38v-1.31h1.1c.14 0 .25-.11.25-.25s-.11-.25-.25-.25h-1.1v-1.31h1.56Zm-3.62-.5c-.14 0-.25.11-.25.25v2.74l-1.8-2.87a.256.256 0 0 0-.28-.11c-.11.03-.18.13-.18.24v3.61c0 .14.11.25.25.25s.25-.11.25-.25v-2.74l1.8 2.87c.05.07.13.12.21.12h.07c.11-.03.18-.13.18-.24v-3.61c0-.14-.11-.25-.25-.25Zm6.33 4.11c.14 0 .25-.11.25-.25v-3.36h.65c.14 0 .25-.11.25-.25s-.11-.25-.25-.25h-1.81c-.14 0-.25.11-.25.25s.11.25.25.25h.65v3.36c0 .14.11.25.25.25Z" style="fill:#009f6e;stroke-width:0"/><path d="M29.12 12.93c-.43-.35-2.41-1.45-4.19-.51-.45.24-.84.62-1.13 1.05-.08-1.38-.4-2.72-.93-3.95.02-.02.04-.03.05-.06 1.03-2.81-.26-5.58-3.46-7.43C18.04 1.21 16.5.77 14.99.75h-.11c-3.83 0-7.33 2.26-7.37 2.65-.01.13.08.25.21.27 2.06.34 2.72 1.33 3.62 2.7.7 1.05 1.49 2.24 3.11 3.41a7.18 7.18 0 0 0 4.21 1.35c.78 0 1.57-.12 2.35-.37a.247.247 0 0 0-.15-.47c-1.26.4-3.73.81-6.12-.91-1.55-1.11-2.31-2.27-2.98-3.28-.83-1.25-1.55-2.34-3.43-2.81.96-.64 3.61-2.05 6.65-2.04 1.42.02 2.89.44 4.23 1.21 2.85 1.65 4.03 3.97 3.35 6.41a11.523 11.523 0 0 0-5.63-5.34c-.12-.05-.27 0-.33.13s0 .27.13.33c4 1.77 6.59 5.73 6.59 10.11v14.65h-1.11c-.14 0-.25.11-.25.25s.11.25.25.25h1.36c.14 0 .25-.11.25-.25V17.28c.23-1.23.6-2.58 2.07-2.94.13-.03.22-.17.18-.3-.03-.13-.17-.22-.3-.18-1.04.26-1.61.93-1.95 1.66v-.55c0-.81.56-1.69 1.34-2.1 1.27-.67 2.62-.12 3.27.23-.46.26-.68.75-.89 1.22-.22.5-.46 1.01-.99 1.36-.65.43-.87.43-1.14.43h-.04c-.14 0-.23.11-.23.25 0 .15.16.25.3.25.3 0 .63-.02 1.38-.51.65-.43.92-1.04 1.17-1.58.29-.65.48-1.02 1.03-1.11.1-.01.18-.09.21-.18.03-.1-.04-.23-.12-.3ZM2.35 28.75h-1.1V14.1c0-3.66 1.81-7.07 4.83-9.13.11-.08.14-.23.07-.35-.08-.12-.23-.14-.35-.07A11.541 11.541 0 0 0 .75 14.1V29c0 .14.11.25.25.25h1.35c.14 0 .25-.11.25-.25s-.11-.25-.25-.25Z" style="fill:#009f6e;stroke-width:0"/></svg>