<?xml version="1.0" encoding="utf-8"?>
<!-- Generator: Adobe Illustrator 26.0.1, SVG Export Plug-In . SVG Version: 6.00 Build 0)  -->
<svg version="1.2" baseProfile="tiny-ps" id="Default" xmlns="http://www.w3.org/2000/svg" xmlns:xlink="http://www.w3.org/1999/xlink" viewBox="0 0 200 202.3" overflow="visible" xml:space="preserve">
<title>EUROCONTROL - Logo</title>
<g>
	<path fill="#003366" d="M169.7,34C155,13.3,130.6,0,103.4,0c-45,0-81.6,36.5-81.6,81.6c0,5.7,0.6,11.3,1.7,16.7l82.2-36.5h-45
		c7.4-15.9,23.8-27.2,42.5-27.2c13,0,24.6,5.4,33.1,13.6L169.7,34z"/>
	<polygon fill="#2990EA" points="186.4,30 104.2,113.6 0,113.6 	"/>
	<polygon fill="#003366" points="17.3,193.2 9.9,193.2 9.9,199.2 18.1,199.2 18.1,202 6.2,202 6.2,182.2 17.8,182.2 17.8,185 
		9.9,185 9.9,190.4 17.3,190.4 	"/>
	<path fill="#003366" d="M24.9,182.2v11.6c0,4,1.7,5.7,4,5.7c2.6,0,4.2-1.7,4.2-5.7v-11.6h3.7v11.3c0,6.2-3.1,8.8-7.9,8.8
		c-4.5,0-7.7-2.5-7.7-8.8v-11.3H24.9z"/>
	<path fill="#003366" d="M41.1,182.4c1.4-0.3,3.4-0.6,5.4-0.6c2.8,0,4.8,0.6,6.2,1.7c1.1,0.9,1.7,2.3,1.7,4c0,2.6-1.7,4.2-3.7,4.8
		c1.4,0.6,2.3,2,2.8,3.7c0.6,2.5,1.1,4.8,1.4,5.4h-3.7c-0.3-0.6-0.8-2.3-1.4-4.5c-0.6-2.6-1.4-3.4-3.7-3.4h-1.7v8.2h-3.7v-19.3H41.1
		z M44.5,191.2h2.3c2.6,0,4-1.4,4-3.4c0-2.3-1.4-3.1-4-3.1c-1.1,0-2,0-2.3,0.3V191.2z"/>
	<path fill="#003366" d="M65.7,202.3c-5.7,0-9.1-4.2-9.1-10.2s4-10.5,9.3-10.5c5.7,0,9.1,4.2,9.1,9.9
		C75.4,198.6,71.1,202.3,65.7,202.3 M66,199.4c3.4,0,5.4-3.1,5.4-7.4c0-3.7-2-7.4-5.4-7.4c-3.4,0-5.4,3.4-5.4,7.4
		C60.3,196,62.3,199.4,66,199.4"/>
	<path fill="#003366" d="M92.6,201.4c-0.8,0.3-2.8,0.9-5.1,0.9c-6.2,0-10.2-4-10.2-9.9c0-6.5,4.5-10.5,10.5-10.5
		c2.3,0,4,0.6,4.8,0.9l-0.8,2.8c-0.9-0.3-2.3-0.9-4-0.9c-4,0-6.8,2.6-6.8,7.4c0,4.2,2.6,7.1,6.8,7.1c1.4,0,2.8-0.3,4-0.6L92.6,201.4
		z"/>
	<path fill="#003366" d="M102.8,202.3c-5.7,0-9.1-4.2-9.1-10.2s4-10.5,9.3-10.5c5.7,0,9.1,4.2,9.1,9.9
		C112.5,198.6,108.5,202.3,102.8,202.3 M103.1,199.4c3.4,0,5.4-3.1,5.4-7.4c0-3.7-2-7.4-5.4-7.4c-3.4,0-5.4,3.4-5.4,7.4
		C97.7,196,99.7,199.4,103.1,199.4"/>
	<path fill="#003366" d="M115.6,202v-19.8h4.2l5.1,8.5c1.4,2.3,2.6,4.5,3.4,6.5c-0.3-2.6-0.3-5.1-0.3-8.2v-6.8h3.4V202h-3.7
		l-5.4-8.8c-1.1-2.3-2.6-4.5-3.4-6.8c0.3,2.6,0.3,5.1,0.3,8.5v7.1H115.6z"/>
	<polygon fill="#003366" points="139.1,185.3 133.4,185.3 133.4,182.2 148.4,182.2 148.4,185.3 142.8,185.3 142.8,202 139.1,202 	
		"/>
	<path fill="#003366" d="M150.7,182.4c1.4-0.3,3.4-0.6,5.4-0.6c2.8,0,4.8,0.6,6.2,1.7c1.1,0.9,1.7,2.3,1.7,4c0,2.6-1.7,4.2-3.7,4.8
		c1.4,0.6,2.3,2,2.8,3.7c0.6,2.5,1.1,4.8,1.4,5.4h-3.7c-0.3-0.6-0.9-2.3-1.4-4.5c-0.6-2.6-1.4-3.4-3.7-3.4h-1.7v8.2h-3.7v-19.3
		H150.7z M154.4,191.2h2.3c2.6,0,4-1.4,4-3.4c0-2.3-1.4-3.1-4-3.1c-1.1,0-2,0-2.3,0.3V191.2z"/>
	<path fill="#003366" d="M175.6,202.3c-5.7,0-9.1-4.2-9.1-10.2s4-10.5,9.3-10.5c5.7,0,9.1,4.2,9.1,9.9
		C185,198.6,181,202.3,175.6,202.3 M175.9,199.4c3.4,0,5.4-3.1,5.4-7.4c0-3.7-2-7.4-5.4-7.4c-3.4,0-5.4,3.4-5.4,7.4
		C170.3,196,172.2,199.4,175.9,199.4"/>
	<polygon fill="#003366" points="188.1,182.2 191.8,182.2 191.8,198.9 200,198.9 200,202 188.4,202 188.4,182.2 	"/>
	<path fill="#003366" d="M102.8,129.1c-11.5,0-22-4-30.2-10.7H28.8c13.6,26.9,41.7,45.3,74.1,45.3c33.4,0,62.2-19.4,75.3-47.6h-42.5
		C127.1,124.2,115.5,129.1,102.8,129.1"/>
</g>
</svg>
